<!DOCTYPE svg PUBLIC "-//W3C//DTD SVG 1.1//EN" "http://www.w3.org/Graphics/SVG/1.1/DTD/svg11.dtd">
<svg version="1.1"
  xmlns="http://www.w3.org/2000/svg"
  xmlns:xlink="http://www.w3.org/1999/xlink" viewBox="0 0 512 512" xml:space="preserve" width="800px" height="800px" fill="#000000">

  <circle style="fill:#FFD630;" cx="256" cy="256" r="256"/>
  <path style="fill:#F5BE18;" d="M246.773,511.849L81.89,345.964V143.27h313.167L512,261.215C509.192,400.172,395.709,512,256.051,512 c-3.109,0-6.168-0.05-9.278-0.2V511.849L246.773,511.849z"/>
  <rect x="81.89" y="186.5" style="fill:#F7F7F8;" width="313.17" height="116.29"/>
  <path style="fill:#E6E6E6;" d="M395.058,244.666v58.17H81.89v-58.17H395.058z"/>
  <path style="fill:#006775;" d="M395.058,186.496v-43.177H81.89v43.177h36.106v116.341H81.89v43.177h313.167v-43.177h-36.106 V186.496H395.058z M312.917,152.447h25.725v23.319h-25.725V152.447z M332.824,186.496v116.341H144.022V186.496H332.824z M269.239,152.447h25.725v23.319h-25.725V152.447z M225.561,152.447h25.725v23.319h-25.725V152.447z M181.883,152.447h25.725 v23.319h-25.725V152.447z M120.353,336.887H94.627v-23.319h25.725L120.353,336.887L120.353,336.887z M120.353,175.765H94.627 v-23.319h25.725L120.353,175.765L120.353,175.765z M138.205,152.447h25.725v23.319h-25.725V152.447z M163.98,336.887h-25.725 v-23.319h25.725V336.887z M207.658,336.887h-25.725v-23.319h25.725V336.887z M251.336,336.887h-25.725v-23.319h25.725V336.887z M295.014,336.887h-25.725v-23.319h25.725V336.887z M338.692,336.887h-25.725v-23.319h25.725V336.887z M382.37,313.569v23.319 h-25.725v-23.319H382.37z M356.594,175.765v-23.319h25.725v23.319H356.594z"/>
  <path style="fill:#006775;" d="M218.038,202.493l45.433,38.312c2.257,1.905,2.257,5.817,0,7.722l-45.433,38.312 c-2.708,2.307-6.218,1.304-6.218-2.457c0-25.926,0-53.557,0-79.483c0-3.711,3.51-4.713,6.218-2.457L218.038,202.493 L218.038,202.493z"/>
  <path style="fill:#055661;" d="M265.127,244.666c0,1.454-0.551,2.908-1.705,3.862l-45.433,38.312 c-2.708,2.307-6.218,1.304-6.218-2.457v-39.766h53.306L265.127,244.666z"/>
  <path style="fill:#FF873D;" d="M379.613,405.487l-57.017-75.12c-1.555-2.056-4.563-2.458-6.62-0.853l-1.855,1.404l-16.047-20.961 v-0.001h0.05c33.448-31.592,38.312-83.996,9.829-121.406c-30.539-40.117-87.757-47.84-127.824-17.35 c-40.117,30.539-47.84,87.757-17.35,127.824c29.035,38.162,82.241,47.039,121.857,21.513l15.896,20.811l-1.805,1.404 c-2.056,1.555-2.407,4.563-0.853,6.62l57.017,75.12c1.555,2.056,4.563,2.458,6.62,0.853l17.25-13.238 C380.816,410.552,381.167,407.544,379.613,405.487z M280.171,302.587c-32.545,24.773-78.981,18.454-103.704-14.041 c-24.773-32.546-18.454-78.982,14.041-103.704c32.545-24.773,78.981-18.454,103.704,14.041 C318.984,231.428,312.666,277.864,280.171,302.587z"/>
  <path style="fill:#E84F4F;" d="M316.327,329.215L300.53,341.3l-1.805,1.404c-2.056,1.605-2.457,4.563-0.853,6.62l57.017,75.12 c1.554,2.056,4.563,2.457,6.62,0.853l17.25-13.238c2.056-1.605,2.457-4.563,0.853-6.62l-57.017-75.12 c-1.504-1.955-4.212-2.407-6.268-1.154V329.215z"/>
  <path style="fill:#CA4545;" d="M314.12,330.869l1.855-1.404c2.056-1.605,5.065-1.204,6.62,0.853l57.017,75.12 c1.554,2.056,1.204,5.065-0.853,6.62l-8.625,6.62l-62.232-83.043L314.12,330.869z"/>

</svg>
